<svg width="85" height="88" viewBox="0 0 85 88" fill="none" xmlns="http://www.w3.org/2000/svg">
<g clip-path="url(#clip0_2136_1705)">
<path d="M7.38739 22.6466C7.9033 22.6549 8.41568 22.5603 8.8947 22.3686C9.37372 22.1768 9.8098 21.8917 10.1775 21.5298C10.5453 21.1678 10.8373 20.7363 11.0367 20.2604C11.236 19.7845 11.3387 19.2737 11.3387 18.7577C11.3387 18.2418 11.236 17.731 11.0367 17.255C10.8373 16.7791 10.5453 16.3477 10.1775 15.9857C9.8098 15.6238 9.37372 15.3386 8.8947 15.1469C8.41568 14.9551 7.9033 14.8606 7.38739 14.8688C5.26258 14.901 3.55676 16.6328 3.55676 18.7579C3.55676 20.883 5.26258 22.6145 7.38739 22.6466ZM66.9493 19.3503C67.4642 19.3569 67.9754 19.2612 68.4531 19.0687C68.9308 18.8762 69.3655 18.5907 69.7319 18.2289C70.0984 17.867 70.3894 17.436 70.588 16.9608C70.7866 16.4856 70.8888 15.9757 70.8887 15.4607C70.8886 14.9457 70.7863 14.4358 70.5876 13.9607C70.3889 13.4855 70.0978 13.0546 69.7313 12.6928C69.3647 12.3311 68.9299 12.0457 68.4522 11.8533C67.9744 11.6609 67.4632 11.5654 66.9483 11.5721C64.8235 11.6043 63.118 13.3364 63.118 15.4615C63.1183 17.5866 64.8245 19.3184 66.9493 19.3503Z" fill="#FF598B"/>
<path d="M70.1055 69.3154C70.6214 69.3236 71.1338 69.229 71.6128 69.0372C72.0917 68.8454 72.5278 68.5602 72.8955 68.1982C73.2632 67.8362 73.5552 67.4047 73.7545 66.9288C73.9538 66.4528 74.0563 65.942 74.0563 65.426C74.0562 64.91 73.9535 64.3993 73.7541 63.9234C73.5547 63.4475 73.2626 63.016 72.8948 62.6542C72.527 62.2923 72.0909 62.0072 71.6118 61.8155C71.1328 61.6238 70.6204 61.5293 70.1045 61.5376C67.9797 61.5698 66.2742 63.3019 66.2745 65.427C66.2749 67.5522 67.9807 69.2836 70.1055 69.3154ZM23.2714 7.77848C23.7864 7.78517 24.2976 7.68952 24.7753 7.49708C25.253 7.30464 25.6877 7.01923 26.0543 6.65744C26.4208 6.29564 26.7118 5.86465 26.9104 5.38948C27.1091 4.91431 27.2114 4.40442 27.2114 3.8894C27.2114 3.37439 27.1091 2.8645 26.9104 2.38933C26.7118 1.91416 26.4208 1.48317 26.0543 1.12137C25.6877 0.759572 25.253 0.47417 24.7753 0.281729C24.2976 0.0892866 23.7864 -0.00636367 23.2714 0.000328384C21.1463 0.0328358 19.4408 1.76427 19.4408 3.8894C19.4408 6.01454 21.1463 7.7463 23.2714 7.77848Z" fill="#FFCD59"/>
<path d="M46.2805 34.7862C45.8193 34.7861 45.3641 34.6809 44.9495 34.4787C44.535 34.2765 44.1719 33.9825 43.8879 33.619C43.6039 33.2556 43.4064 32.8323 43.3104 32.3811C43.2144 31.93 43.2224 31.4629 43.3338 31.0153C43.4553 30.5287 43.5545 30.0401 43.629 29.5525C42.7177 29.9287 41.747 30.1404 40.7618 30.1777C38.9955 30.245 37.4142 29.9472 36.0663 29.2944C34.7454 28.6615 33.6454 27.6459 32.9094 26.3795C31.4597 23.8669 31.5848 20.5617 33.226 17.9588C34.7906 15.4738 37.4408 14.1288 40.3139 14.3485C42.527 14.5215 44.4666 15.3503 46.0201 16.7724C46.3031 15.9741 46.5738 15.12 46.8321 14.2103C48.4191 8.60912 48.9431 2.98468 48.9474 2.92787C48.9833 2.53087 49.0971 2.14483 49.2822 1.79182C49.4674 1.43881 49.7203 1.12574 50.0264 0.870501C50.3326 0.615267 50.6861 0.42287 51.0667 0.304307C51.4473 0.185743 51.8475 0.143337 52.2445 0.179511C53.0461 0.252826 53.7858 0.641363 54.3012 1.25976C54.8165 1.87816 55.0653 2.67583 54.9928 3.47754C54.9708 3.72939 54.4123 9.7262 52.672 15.8681C51.7933 18.9695 50.755 21.5901 49.5789 23.6824C49.6655 24.1487 49.7346 24.6272 49.786 25.118C50.031 27.4858 49.836 30.0348 49.2232 32.488C49.0583 33.1438 48.6793 33.7259 48.1463 34.1421C47.6133 34.5582 46.9567 34.7851 46.2805 34.7862ZM39.6729 20.3949C39.359 20.3949 38.8061 20.4868 38.3608 21.1928C37.9346 21.8692 37.8512 22.7929 38.1677 23.3416C38.5887 24.0715 39.8273 24.1352 40.5286 24.1086C41.3246 24.0784 42.1402 23.5793 42.9381 22.6698C42.8053 22.3914 42.6481 22.1253 42.4686 21.8745C41.8096 20.9593 40.9755 20.4914 39.8424 20.4028C39.7997 20.4001 39.7422 20.3949 39.6729 20.3949Z" fill="#59B2FF"/>
<path d="M37.5516 43.1033C24.9613 33.179 11.8017 28.8792 8.1589 33.5001C7.81614 33.9396 7.56422 34.4429 7.4178 34.9807C7.39549 35.046 7.37836 35.113 7.36657 35.181V35.1889C7.31776 35.3962 7.28131 35.606 7.25723 35.8183L0.129231 77.552C-1.01247 84.2545 5.62266 89.6208 11.9393 87.1049L50.5939 71.7023C51.2756 71.4311 52.9532 70.3948 53.4122 69.8228C53.534 69.7037 53.6475 69.5775 53.7528 69.4442C57.3949 64.8226 50.1408 53.0302 37.5516 43.1023V43.1033Z" fill="#FFCD59"/>
<path d="M53.7485 69.4456C57.3933 64.8223 50.1418 53.0277 37.5515 43.1028C24.9613 33.1775 11.8001 28.8796 8.15561 33.5029C4.51116 38.1262 11.762 49.9208 24.3522 59.8457C36.9424 69.771 50.1037 74.0689 53.7485 69.4456Z" fill="#FFCD59"/>
<path d="M51.5504 66.7537C54.541 62.9592 47.9529 52.7778 36.8343 44.0129C25.7158 35.2474 14.2771 31.2181 11.2868 35.0117C8.29541 38.8062 14.8836 48.9876 26.0021 57.7524C37.1203 66.518 48.5593 70.5482 51.5504 66.7537Z" fill="#FFCD59"/>
<path d="M38.9221 47.6291C39.437 47.6358 39.9482 47.5401 40.4259 47.3477C40.9036 47.1552 41.3384 46.8698 41.7049 46.508C42.0714 46.1462 42.3624 45.7152 42.5611 45.2401C42.7597 44.7649 42.862 44.255 42.862 43.74C42.862 43.225 42.7597 42.7151 42.5611 42.2399C42.3624 41.7647 42.0714 41.3338 41.7049 40.972C41.3384 40.6102 40.9036 40.3248 40.4259 40.1323C39.9482 39.9399 39.437 39.8442 38.9221 39.8509C36.7973 39.8831 35.0914 41.6149 35.0914 43.74C35.0914 45.8651 36.7973 47.5969 38.9221 47.6291Z" fill="#59B2FF"/>
<path d="M59.8965 40.0621L59.9251 40.0302C59.9605 39.9922 60.0262 39.9219 60.1208 39.8263C60.4153 39.5333 60.722 39.2529 61.0402 38.9857C62.2091 38.0072 63.4864 37.1666 64.8472 36.4804C68.1728 34.7975 73.1244 33.4243 79.6183 34.9216C81.5698 35.3715 83.516 34.1546 83.9661 32.2035C84.416 30.2524 83.1991 28.3059 81.248 27.856C72.8414 25.9177 66.1576 27.6899 61.5721 30.012C59.7102 30.9515 57.9631 32.1028 56.3653 33.4431C55.8859 33.846 55.4241 34.2695 54.9813 34.7125C54.8095 34.8851 54.642 35.0619 54.4789 35.2428L54.4395 35.2871L54.4257 35.3029L54.4192 35.3101L54.4169 35.3127C54.4159 35.3144 54.4139 35.316 57.1623 37.6802L54.4139 35.316C53.1409 36.8337 53.3211 39.0921 54.8188 40.3885C56.3164 41.6848 58.5772 41.5397 59.8965 40.0621ZM23.98 14.2009C23.7095 13.7715 23.357 13.3997 22.9426 13.1067C22.5282 12.8137 22.0601 12.6054 21.565 12.4936C21.07 12.3819 20.5577 12.3689 20.0577 12.4554C19.5576 12.5419 19.0795 12.7262 18.6508 12.9978C18.2218 13.2686 17.8503 13.6212 17.5577 14.0355C17.265 14.4499 17.0569 14.9178 16.9451 15.4126C16.8333 15.9074 16.8202 16.4194 16.9064 16.9193C16.9925 17.4192 17.1764 17.8973 17.4473 18.3261C17.5875 18.5504 20.461 23.2055 21.0514 29.5809C21.6523 36.0584 19.7491 42.0125 15.3862 47.3517C16.8553 49.2187 18.6232 51.1593 20.6426 53.1002C23.4369 49.8711 25.5394 46.4011 26.9208 42.7297C28.6201 38.2128 29.2213 33.4233 28.7087 28.496C27.8921 20.6568 24.4818 14.9972 23.98 14.2009Z" fill="#FF598B"/>
<path d="M72.3183 51.4136C74.2892 51.9236 75.682 52.4795 76.2839 52.7382C76.9874 53.1699 77.8098 53.3669 78.6326 53.3008C79.4553 53.2347 80.2357 52.9089 80.8612 52.3705C81.2756 52.0124 81.6099 51.571 81.8422 51.0751C82.0746 50.5792 82.1998 50.04 82.2098 49.4924C82.2236 48.6672 81.9746 47.859 81.4989 47.1845C81.0231 46.5101 80.3453 46.0044 79.5632 45.7406C77.7185 44.9213 70.7288 42.1549 61.4891 42.6465C55.2697 42.9771 49.2889 44.6997 43.7141 47.7715C38.4354 50.6807 33.5337 54.8023 29.0837 60.0603C31.2069 61.571 33.4185 62.9533 35.7067 64.1999C43.2202 55.6363 51.8892 50.9943 61.5485 50.3809C65.1705 50.1611 68.8042 50.5096 72.3183 51.4136Z" fill="#59B2FF"/>
</g>
<defs>
<clipPath id="clip0_2136_1705">
<rect width="84.0597" height="88" fill="white"/>
</clipPath>
</defs>
</svg>
